<svg viewBox="0 0 800 600" xmlns="http://www.w3.org/2000/svg">
    <!-- Background -->
    <rect width="800" height="600" fill="#f8f9fa"/>
    
    <!-- User Interface Layer -->
    <rect x="50" y="50" width="700" height="80" rx="10" fill="#4a90e2" opacity="0.8"/>
    <text x="370" y="95" text-anchor="middle" fill="white" font-size="20">Universal Account Interface</text>
    
    <!-- Cross-Chain Management Layer -->
    <rect x="50" y="180" width="700" height="120" rx="10" fill="#50c878" opacity="0.8"/>
    <text x="370" y="225" text-anchor="middle" fill="white" font-size="20">Cross-Chain Management Layer</text>
    <text x="370" y="255" text-anchor="middle" fill="white" font-size="14">Asset Bridge | Gas Token Swap | Transaction Router</text>
    
    <!-- Blockchain Networks -->
    <rect x="50" y="350" width="150" height="80" rx="10" fill="#ff6b6b"/>
    
    <text x="125" y="395" text-anchor="middle" fill="white" font-size="16">Ethereum</text>
    
    <rect x="250" y="350" width="150" height="80" rx="10" fill="#ff6b6b"/>
    <text x="325" y="395" text-anchor="middle" fill="white" font-size="16">Binance Chain</text>
    
    <rect x="450" y="350" width="150" height="80" rx="10" fill="#ff6b6b"/>
    <text x="525" y="395" text-anchor="middle" fill="white" font-size="16">Polygon</text>
    
    <rect x="650" y="350" width="150" height="80" rx="10" fill="#ff6b6b"/>
    <text x="725" y="395" text-anchor="middle" fill="white" font-size="16">Other Chains</text>
    
    <!-- Connection Lines -->
    <path d="M400 130 L400 180" stroke="#333" stroke-width="2"/>
    <path d="M125 300 L125 350" stroke="#333" stroke-width="2"/>
    <path d="M325 300 L325 350" stroke="#333" stroke-width="2"/>
    <path d="M525 300 L525 350" stroke="#333" stroke-width="2"/>
    <path d="M725 300 L725 350" stroke="#333" stroke-width="2"/>
</svg>
